<?xml version="1.0" ?><svg height="136px" id="icons__x28_128_x__x_128_x29_" style="enable-background:new 0 0 136 136;" version="1.1" viewBox="0 0 136 136" width="136px" xml:space="preserve" xmlns="http://www.w3.org/2000/svg" xmlns:xlink="http://www.w3.org/1999/xlink"><g><g><path d="M12,126c-4.4,0-8-3.6-8-8V90c0-4.4,3.6-8,8-8h112c4.4,0,8,3.6,8,8v28c0,4.4-3.6,8-8,8H12z" style="fill:#453F3C;"/><path d="M124,122H12c-2.2,0-4-1.8-4-4V90c0-2.2,1.8-4,4-4h112c2.2,0,4,1.8,4,4v28    C128,120.2,126.2,122,124,122z" style="fill:#F2ECE2;"/><g><defs><path d="M124,122H12c-2.2,0-4-1.8-4-4V90c0-2.2,1.8-4,4-4h112c2.2,0,4,1.8,4,4v28C128,120.2,126.2,122,124,122z" id="SVGID_1_"/></defs><clipPath id="SVGID_2_"><use style="overflow:visible;" xlink:href="#SVGID_1_"/></clipPath><rect height="6" style="mix-blend-mode:overlay;opacity:0.8;clip-path:url(#SVGID_2_);fill:#FFFFFF;" width="128" x="4" y="82"/><rect height="6" style="opacity:0.24;clip-path:url(#SVGID_2_);" width="128" x="4" y="120"/></g><g><rect height="32" style="mix-blend-mode:overlay;opacity:0.8;fill:#FFFFFF;" width="2" x="101" y="88"/><rect height="32" style="mix-blend-mode:overlay;opacity:0.8;fill:#FFFFFF;" width="1" x="105" y="88"/></g><g><path d="M15,118L15,118c-0.6,0-1-0.4-1-1v-12c0-0.6,0.4-1,1-1h0c0.5,0,1,0.4,1,1v12     C16,117.6,15.6,118,15,118z" style="fill:#453F3C;"/><path d="M19,118L19,118c-0.6,0-1-0.4-1-1v-12c0-0.6,0.4-1,1-1h0c0.5,0,1,0.4,1,1v12     C20,117.6,19.6,118,19,118z" style="fill:#453F3C;"/><path d="M23,118L23,118c-0.6,0-1-0.4-1-1v-12c0-0.6,0.4-1,1-1h0c0.5,0,1,0.4,1,1v12     C24,117.6,23.6,118,23,118z" style="fill:#453F3C;"/><path d="M27,118L27,118c-0.6,0-1-0.4-1-1v-12c0-0.6,0.4-1,1-1h0c0.5,0,1,0.4,1,1v12     C28,117.6,27.6,118,27,118z" style="fill:#453F3C;"/><path d="M31,118L31,118c-0.6,0-1-0.4-1-1v-12c0-0.6,0.4-1,1-1h0c0.5,0,1,0.4,1,1v12     C32,117.6,31.6,118,31,118z" style="fill:#453F3C;"/><path d="M35,118L35,118c-0.5,0-1-0.4-1-1v-12c0-0.6,0.5-1,1-1l0,0c0.5,0,1,0.4,1,1v12     C36,117.6,35.5,118,35,118z" style="fill:#453F3C;"/><path d="M39,118L39,118c-0.5,0-1-0.4-1-1v-12c0-0.6,0.5-1,1-1l0,0c0.5,0,1,0.4,1,1v12     C40,117.6,39.5,118,39,118z" style="fill:#453F3C;"/><path d="M43,118L43,118c-0.5,0-1-0.4-1-1v-12c0-0.6,0.5-1,1-1l0,0c0.5,0,1,0.4,1,1v12     C44,117.6,43.5,118,43,118z" style="fill:#453F3C;"/><path d="M47,118L47,118c-0.5,0-1-0.4-1-1v-12c0-0.6,0.5-1,1-1l0,0c0.5,0,1,0.4,1,1v12     C48,117.6,47.5,118,47,118z" style="fill:#453F3C;"/><path d="M51,118L51,118c-0.5,0-1-0.4-1-1v-12c0-0.6,0.5-1,1-1l0,0c0.5,0,1,0.4,1,1v12     C52,117.6,51.5,118,51,118z" style="fill:#453F3C;"/></g><g><path d="M64,118c-2.2,0-4-1.8-4-4V94c0-2.2,1.8-4,4-4h56c2.2,0,4,1.8,4,4v20c0,2.2-1.8,4-4,4H64z" style="fill:#453F3C;"/><path d="M120,116H64c-1.1,0-2-0.9-2-2V94c0-1.1,0.9-2,2-2h56c1.1,0,2,0.9,2,2v20     C122,115.1,121.1,116,120,116z" style="fill:#D8D1C7;"/><g><path d="M80,109h-6c-0.6,0-1-0.4-1-1v-8c0-0.6,0.4-1,1-1h6c0.6,0,1,0.4,1,1v8C81,108.6,80.6,109,80,109z" style="fill:#453F3C;"/><path d="M89,106H65c-0.6,0-1-0.4-1-1v-2c0-0.6,0.4-1,1-1h24c0.6,0,1,0.4,1,1v2C90,105.6,89.6,106,89,106z      " style="fill:#453F3C;"/></g><circle cx="68" cy="110" r="1" style="fill:#453F3C;"/><path d="M120,92H64c-1.1,0-2,0.9-2,2v20c0,1.1,0.9,2,2,2h56c1.1,0,2-0.9,2-2V94C122,92.9,121.1,92,120,92z      M120,114H64V94h56V114z" style="opacity:0.24;"/><rect height="2" style="opacity:0.24;" width="56" x="64" y="94"/><g><rect height="18" style="mix-blend-mode:overlay;opacity:0.24;fill:#FFFFFF;" width="2" x="97" y="96"/><rect height="18" style="mix-blend-mode:overlay;opacity:0.24;fill:#FFFFFF;" width="1" x="101" y="96"/></g><g><path d="M110,109h-6c-0.6,0-1-0.4-1-1v-8c0-0.6,0.4-1,1-1h6c0.6,0,1,0.4,1,1v8      C111,108.6,110.6,109,110,109z" style="fill:#453F3C;"/><path d="M119,106H95c-0.6,0-1-0.4-1-1v-2c0-0.6,0.4-1,1-1h24c0.6,0,1,0.4,1,1v2      C120,105.6,119.6,106,119,106z" style="fill:#453F3C;"/><circle cx="98" cy="110" r="1" style="fill:#453F3C;"/></g></g></g><g><g><path d="M47,76v4c0,1.1-0.9,2-2,2h-6c-1.1,0-2-0.9-2-2v-4H47z" style="fill:#453F3C;"/><path d="M99,76v4c0,1.1-0.9,2-2,2h-6c-1.1,0-2-0.9-2-2v-4H99z" style="fill:#453F3C;"/><g><path d="M27,80c-3.3,0-6-2.7-6-6V16c0-3.3,2.7-6,6-6h82c3.3,0,6,2.7,6,6v58c0,3.3-2.7,6-6,6H27z" style="fill:#453F3C;"/><path d="M109,76H27c-1.1,0-2-0.9-2-2V16c0-1.1,0.9-2,2-2h82c1.1,0,2,0.9,2,2v58C111,75.1,110.1,76,109,76      z" style="fill:#F2ECE2;"/></g></g><g><path d="M103,72H33c-1.1,0-2-0.9-2-2V20c0-1.1,0.9-2,2-2h70c1.1,0,2,0.9,2,2v50C105,71.1,104.1,72,103,72z     " style="fill:#453F3C;"/><path d="M99,68H37c-1.1,0-2-0.9-2-2V24c0-1.1,0.9-2,2-2h62c1.1,0,2,0.9,2,2v42C101,67.1,100.1,68,99,68z" style="fill:#D8D1C7;"/><path d="M89,66H39c-1.1,0-2-0.9-2-2V26c0-1.1,0.9-2,2-2h50c1.1,0,2,0.9,2,2v38C91,65.1,90.1,66,89,66z" style="fill:#453F3C;"/><g><circle cx="96" cy="52" r="2" style="fill:#453F3C;"/><circle cx="96" cy="58" r="2" style="fill:#453F3C;"/></g><rect height="4" style="fill:#453F3C;" width="4" x="94" y="26"/><g><defs><path d="M99,68H37c-1.1,0-2-0.9-2-2V24c0-1.1,0.9-2,2-2h62c1.1,0,2,0.9,2,2v42C101,67.1,100.1,68,99,68z" id="SVGID_3_"/></defs><clipPath id="SVGID_4_"><use style="overflow:visible;" xlink:href="#SVGID_3_"/></clipPath><rect height="3" style="opacity:0.24;clip-path:url(#SVGID_4_);" width="69" x="33" y="21"/></g><rect height="34" style="fill:#314C3C;" width="46" x="41" y="28"/><g><defs><rect height="26" id="SVGID_5_" width="38" x="45" y="32"/></defs><clipPath id="SVGID_6_"><use style="overflow:visible;" xlink:href="#SVGID_5_"/></clipPath><g style="mix-blend-mode:overlay;opacity:0.2;clip-path:url(#SVGID_6_);"><path d="M56,66H44l42-42h12L56,66z" style="fill:#FFFFFF;"/><path d="M34,66h-4l42-42h4L34,66z" style="fill:#FFFFFF;"/></g></g><path d="M41,28v34h46V28H41z M85,60H43V30h42V60z" style="opacity:0.24;"/></g><g><defs><path d="M109,76H27c-1.1,0-2-0.9-2-2V16c0-1.1,0.9-2,2-2h82c1.1,0,2,0.9,2,2v58C111,75.1,110.1,76,109,76z" id="SVGID_7_"/></defs><clipPath id="SVGID_8_"><use style="overflow:visible;" xlink:href="#SVGID_7_"/></clipPath><rect height="6" style="mix-blend-mode:overlay;opacity:0.8;clip-path:url(#SVGID_8_);fill:#FFFFFF;" width="94" x="21" y="10"/><rect height="6" style="opacity:0.24;clip-path:url(#SVGID_8_);" width="94" x="21" y="74"/></g></g></g></svg>